<svg xmlns="http://www.w3.org/2000/svg" viewBox="0 0 340.000000 250.000000">
  <g transform="translate(48.92500305175781,92.1944694519043) scale(0.65588)">
    <path d="M8.94 1.34a15.59 15.59 0 0 1 9.36-1c2.81.52 5.24 2.11 7.7 3.5C28 5 30 6.1 32 7.35c-1.21 1.91-2.84 3.49-4.19 5.28a61.16 61.16 0 0 0 3.49 78.73c.36.38.73.91.48 1.44-1.68 1.17-3.57 2-5.31 3-2.46 1.34-4.78 3.07-7.56 3.7A15.43 15.43 0 0 1 7.66 98 15.22 15.22 0 0 1 0 85.08V17.89a26.35 26.35 0 0 1 .28-5.47A15 15 0 0 1 8.94 1.34z" fill="#0079d4"></path>
    <path d="M28.32 45.07A47.67 47.67 0 0 1 44 14.18c4 2.06 7.79 4.53 11.77 6.64 2.72 1.62 5.51 3.09 8.21 4.75-1.5 1.29-3.34 2.1-4.84 3.39a27.33 27.33 0 0 0-9.66 16.7A27 27 0 0 0 60.5 72a31.12 31.12 0 0 1 3.5 2.42c-6.63 3.83-13.27 7.67-20 11.31a47.51 47.51 0 0 1-15.14-27c-.86-4.48-.61-9.1-.54-13.66z" fill="#00a0f9"></path>
    <path d="M74.32 34.91a15.22 15.22 0 0 1 10.21 2.44A14.25 14.25 0 0 1 91 46.84a15.26 15.26 0 0 1-1.78 11 21.25 21.25 0 0 1-3.89 4.42c-1.91 1.8-4.6 2.31-7.09 2.79a15.24 15.24 0 0 1-16.86-11.76 16.4 16.4 0 0 1 .68-9c1.85-5.16 6.99-8.59 12.26-9.38z" fill="#5bd3fb"></path>
  </g>
  <g transform="translate(113.045,143.80)">
    <path d="M20.85 0.48Q15.41 0.48 11.33-1.87 7.25-4.21 5.07-8.59 2.88-12.96 2.88-18.83L2.88-18.83Q2.88-24.69 5.07-29.04 7.25-33.39 11.33-35.73 15.41-38.08 20.85-38.08L20.85-38.08Q24.37-38.08 27.47-37.04 30.56-36 32.96-34.03L32.96-34.03Q33.65-33.49 33.92-32.91 34.19-32.32 34.19-31.47L34.19-31.47Q34.19-30.29 33.55-29.49 32.91-28.69 32-28.69L32-28.69Q30.93-28.69 29.81-29.44L29.81-29.44Q27.52-31.15 25.55-31.81 23.57-32.48 21.17-32.48L21.17-32.48Q15.63-32.48 12.77-29.01 9.92-25.55 9.92-18.83L9.92-18.83Q9.92-12.05 12.77-8.59 15.63-5.12 21.17-5.12L21.17-5.12Q23.47-5.12 25.41-5.81 27.36-6.51 29.81-8.16L29.81-8.16Q30.35-8.48 30.88-8.69 31.41-8.91 32-8.91L32-8.91Q32.91-8.91 33.55-8.11 34.19-7.31 34.19-6.13L34.19-6.13Q34.19-5.33 33.92-4.72 33.65-4.11 32.96-3.57L32.96-3.57Q30.56-1.6 27.47-0.56 24.37 0.48 20.85 0.48L20.85 0.48ZM50.99 0.43Q46.99 0.43 43.97-1.23 40.96-2.88 39.31-5.97 37.65-9.07 37.65-13.17L37.65-13.17Q37.65-17.28 39.31-20.35 40.96-23.41 43.97-25.07 46.99-26.72 50.99-26.72L50.99-26.72Q54.99-26.72 58-25.07 61.01-23.41 62.64-20.35 64.27-17.28 64.27-13.17L64.27-13.17Q64.27-9.07 62.64-5.97 61.01-2.88 58-1.23 54.99 0.43 50.99 0.43L50.99 0.43ZM50.93-4.75Q54.19-4.75 55.89-6.88 57.6-9.01 57.6-13.17L57.6-13.17Q57.6-17.28 55.89-19.44 54.19-21.6 50.99-21.6L50.99-21.6Q47.79-21.6 46.05-19.44 44.32-17.28 44.32-13.17L44.32-13.17Q44.32-9.01 46.03-6.88 47.73-4.75 50.93-4.75L50.93-4.75ZM84.91-26.72Q89.6-26.72 91.89-24.05 94.19-21.39 94.19-16L94.19-16 94.19-2.88Q94.19-1.39 93.31-0.53 92.43 0.32 90.88 0.32L90.88 0.32Q89.33 0.32 88.43-0.53 87.52-1.39 87.52-2.88L87.52-2.88 87.52-15.63Q87.52-18.67 86.37-20.05 85.23-21.44 82.77-21.44L82.77-21.44Q79.89-21.44 78.16-19.63 76.43-17.81 76.43-14.77L76.43-14.77 76.43-2.88Q76.43-1.39 75.52-0.53 74.61 0.32 73.07 0.32L73.07 0.32Q71.52 0.32 70.64-0.53 69.76-1.39 69.76-2.88L69.76-2.88 69.76-23.52Q69.76-24.91 70.67-25.76 71.57-26.61 73.12-26.61L73.12-26.61Q74.51-26.61 75.39-25.79 76.27-24.96 76.27-23.63L76.27-23.63 76.27-22.19Q77.6-24.37 79.84-25.55 82.08-26.72 84.91-26.72L84.91-26.72ZM110.4 0.43Q104.59 0.43 101.01-1.87L101.01-1.87Q99.31-2.88 99.31-4.75L99.31-4.75Q99.31-5.81 99.89-6.48 100.48-7.15 101.33-7.15L101.33-7.15Q102.24-7.15 103.84-6.29L103.84-6.29Q105.55-5.49 106.96-5.07 108.37-4.64 110.56-4.64L110.56-4.64Q112.8-4.64 114.05-5.39 115.31-6.13 115.31-7.47L115.31-7.47Q115.31-8.37 114.8-8.91 114.29-9.44 112.99-9.89 111.68-10.35 109.01-10.93L109.01-10.93Q104.27-11.89 102.21-13.65 100.16-15.41 100.16-18.51L100.16-18.51Q100.16-20.85 101.55-22.75 102.93-24.64 105.36-25.68 107.79-26.72 110.88-26.72L110.88-26.72Q113.12-26.72 115.2-26.16 117.28-25.6 118.93-24.53L118.93-24.53Q120.64-23.47 120.64-21.71L120.64-21.71Q120.64-20.64 120.05-19.92 119.47-19.2 118.61-19.2L118.61-19.2Q118.03-19.2 117.47-19.44 116.91-19.68 116.05-20.16L116.05-20.16Q114.51-20.96 113.39-21.36 112.27-21.76 110.61-21.76L110.61-21.76Q108.64-21.76 107.49-20.96 106.35-20.16 106.35-18.77L106.35-18.77Q106.35-17.44 107.52-16.75 108.69-16.05 112.05-15.36L112.05-15.36Q115.63-14.61 117.65-13.65 119.68-12.69 120.56-11.25 121.44-9.81 121.44-7.57L121.44-7.57Q121.44-3.95 118.43-1.76 115.41 0.43 110.4 0.43L110.4 0.43ZM147.47-7.15Q148.37-7.15 148.93-6.45 149.49-5.76 149.49-4.59L149.49-4.59Q149.49-2.93 147.52-1.81L147.52-1.81Q145.71-0.8 143.41-0.19 141.12 0.43 139.04 0.43L139.04 0.43Q132.75 0.43 129.07-3.2 125.39-6.83 125.39-13.12L125.39-13.12Q125.39-17.12 126.99-20.21 128.59-23.31 131.49-25.01 134.4-26.72 138.08-26.72L138.08-26.72Q141.6-26.72 144.21-25.17 146.83-23.63 148.27-20.8 149.71-17.97 149.71-14.13L149.71-14.13Q149.71-11.84 147.68-11.84L147.68-11.84 131.95-11.84Q132.27-8.16 134.03-6.43 135.79-4.69 139.15-4.69L139.15-4.69Q140.85-4.69 142.16-5.12 143.47-5.55 145.12-6.29L145.12-6.29Q146.72-7.15 147.47-7.15L147.47-7.15ZM138.24-22.03Q135.52-22.03 133.89-20.32 132.27-18.61 131.95-15.41L131.95-15.41 144-15.41Q143.89-18.67 142.4-20.35 140.91-22.03 138.24-22.03L138.24-22.03ZM175.79-7.15Q176.69-7.15 177.25-6.45 177.81-5.76 177.81-4.59L177.81-4.59Q177.81-2.93 175.84-1.81L175.84-1.81Q174.03-0.8 171.73-0.19 169.44 0.43 167.36 0.43L167.36 0.43Q161.07 0.43 157.39-3.2 153.71-6.83 153.71-13.12L153.71-13.12Q153.71-17.12 155.31-20.21 156.91-23.31 159.81-25.01 162.72-26.72 166.4-26.72L166.4-26.72Q169.92-26.72 172.53-25.17 175.15-23.63 176.59-20.8 178.03-17.97 178.03-14.13L178.03-14.13Q178.03-11.84 176-11.84L176-11.84 160.27-11.84Q160.59-8.16 162.35-6.43 164.11-4.69 167.47-4.69L167.47-4.69Q169.17-4.69 170.48-5.12 171.79-5.55 173.44-6.29L173.44-6.29Q175.04-7.15 175.79-7.15L175.79-7.15ZM166.56-22.03Q163.84-22.03 162.21-20.32 160.59-18.61 160.27-15.41L160.27-15.41 172.32-15.41Q172.21-18.67 170.72-20.35 169.23-22.03 166.56-22.03L166.56-22.03Z" fill="#000" />
  </g>
</svg>